
<?xml version="1.0" encoding="utf-8"?>
<!-- Generator: Adobe Illustrator 23.0.1, SVG Export Plug-In . SVG Version: 6.00 Build 0)  -->
<svg version="1.1" id="Layer_1" xmlns="http://www.w3.org/2000/svg" xmlns:xlink="http://www.w3.org/1999/xlink" x="0px" y="0px"
	 viewBox="0 0 40 40" style="enable-background:new 0 0 40 40;" xml:space="preserve">
<style type="text/css">
	.st0{fill:#E79600;}
	.st1{fill:none;stroke:#FFFFFF;stroke-miterlimit:10;}
	.st2{fill:#FFFFFF;}
</style>
<path class="st0" d="M33.06,39.99H6.94c-3.83,0-6.93-3.1-6.93-6.93V6.94c0-3.83,3.1-6.93,6.93-6.93h26.12c3.83,0,6.93,3.1,6.93,6.93
	v26.12C39.99,36.89,36.89,39.99,33.06,39.99z"/>
<path class="st1" d="M31.1,38.03H8.9c-3.83,0-6.93-3.1-6.93-6.93V8.9c0-3.83,3.1-6.93,6.93-6.93h22.2c3.83,0,6.93,3.1,6.93,6.93
	v22.2C38.03,34.93,34.93,38.03,31.1,38.03z"/>
<g>
	<path class="st2" d="M19.46,25.34h-3.51v6.05H9.51V8.61h10.41c6.21,0,10.12,3.22,10.12,8.43c0,3.35-1.63,5.82-4.46,7.19l4.91,7.16
		h-6.9L19.46,25.34z M19.53,13.69h-3.58v6.67h3.58c2.67,0,4-1.24,4-3.32C23.53,14.92,22.2,13.69,19.53,13.69z"/>
</g>
</svg>
